<svg width="125" height="28" viewBox="0 0 125 28" fill="none" xmlns="http://www.w3.org/2000/svg">
<path d="M14.2953 22C13.2553 22 12.5053 21.79 12.0453 21.37C11.6053 20.93 11.3653 20.39 11.3253 19.75C11.1053 20.43 10.6353 21.03 9.91531 21.55C9.21531 22.05 8.19531 22.3 6.85531 22.3C6.07531 22.3 5.31531 22.15 4.57531 21.85C3.83531 21.53 3.17531 21.01 2.59531 20.29C2.01531 19.57 1.54531 18.61 1.18531 17.41C0.845313 16.21 0.675313 14.72 0.675313 12.94C0.675313 12.26 0.715313 11.48 0.795313 10.6C0.875313 9.7 1.03531 8.79 1.27531 7.87C1.53531 6.93 1.89531 6.02 2.35531 5.14C2.83531 4.24 3.45531 3.44 4.21531 2.74C4.99531 2.04 5.94531 1.48 7.06531 1.06C8.18531 0.619999 9.52531 0.399999 11.0853 0.399999C12.1053 0.399999 13.0153 0.509999 13.8153 0.729998C14.6353 0.949999 15.3253 1.26 15.8853 1.66C16.4653 2.06 16.9053 2.55 17.2053 3.13C17.5253 3.71 17.6853 4.36 17.6853 5.08C17.6853 6.24 17.3053 7.12 16.5453 7.72C15.7853 8.3 14.7153 8.59 13.3353 8.59C12.8953 8.59 12.6253 8.56 12.5253 8.5C12.4453 8.42 12.3953 8.27 12.3753 8.05C12.3353 7.69 12.3053 7.33 12.2853 6.97C12.2853 6.61 12.2353 6.28 12.1353 5.98C12.0553 5.68 11.9053 5.44 11.6853 5.26C11.4653 5.08 11.1153 4.99 10.6353 4.99C9.65531 4.99 8.87531 5.27 8.29531 5.83C7.71531 6.39 7.27531 7.07 6.97531 7.87C6.67531 8.67 6.48531 9.5 6.40531 10.36C6.32531 11.2 6.28531 11.91 6.28531 12.49C6.28531 13.45 6.34531 14.26 6.46531 14.92C6.58531 15.56 6.75531 16.09 6.97531 16.51C7.21531 16.91 7.49531 17.2 7.81531 17.38C8.13531 17.54 8.50531 17.62 8.92531 17.62C9.68531 17.62 10.3253 17.46 10.8453 17.14C11.3653 16.82 11.6753 16.24 11.7753 15.4L11.9553 13.72C12.0153 13.14 12.0953 12.67 12.1953 12.31C12.2953 11.93 12.5353 11.74 12.9153 11.74H14.5653C15.0653 11.74 15.4653 11.8 15.7653 11.92C16.0853 12.02 16.3253 12.2 16.4853 12.46C16.6653 12.7 16.7853 13.02 16.8453 13.42C16.9053 13.82 16.9353 14.31 16.9353 14.89C16.9353 15.29 16.9153 15.82 16.8753 16.48C16.8553 17.14 16.8153 17.81 16.7553 18.49C16.7153 19.17 16.6653 19.8 16.6053 20.38C16.5453 20.94 16.4953 21.33 16.4553 21.55C16.4153 21.73 16.3653 21.85 16.3053 21.91C16.2453 21.97 16.1253 22 15.9453 22H14.2953ZM29.5548 12.67C29.4348 12.67 29.2948 12.67 29.1348 12.67C28.9948 12.65 28.8548 12.63 28.7148 12.61C28.5748 12.57 28.4548 12.53 28.3548 12.49C28.2548 12.43 28.2048 12.36 28.2048 12.28C28.2048 12.02 28.2148 11.78 28.2348 11.56C28.2548 11.34 28.2648 11.11 28.2648 10.87C28.2648 10.43 28.2048 10.07 28.0848 9.79C27.9648 9.51 27.7248 9.37 27.3648 9.37C26.8048 9.37 26.3348 9.74 25.9548 10.48C25.5948 11.2 25.3648 12.29 25.2648 13.75C25.2248 14.39 25.1648 15.12 25.0848 15.94C25.0248 16.74 24.9648 17.52 24.9048 18.28C24.8448 19.02 24.7948 19.68 24.7548 20.26C24.7148 20.84 24.6948 21.22 24.6948 21.4C24.6948 21.6 24.6248 21.75 24.4848 21.85C24.3448 21.95 24.1948 22 24.0348 22H22.9548C22.3348 22 21.8248 21.94 21.4248 21.82C21.0448 21.68 20.7348 21.49 20.4948 21.25C20.2748 21.01 20.1148 20.72 20.0148 20.38C19.9348 20.02 19.8948 19.61 19.8948 19.15C19.8948 18.85 19.9048 18.43 19.9248 17.89C19.9648 17.33 20.0248 16.57 20.1048 15.61C20.1848 14.63 20.2748 13.4 20.3748 11.92C20.4948 10.42 20.6348 8.57 20.7948 6.37C20.8348 5.79 21.0448 5.5 21.4248 5.5H22.5948C23.1548 5.5 23.6248 5.56 24.0048 5.68C24.3848 5.8 24.6948 5.97 24.9348 6.19C25.1748 6.39 25.3448 6.63 25.4448 6.91C25.5648 7.19 25.6448 7.48 25.6848 7.78C25.9248 7.32 26.2048 6.93 26.5248 6.61C26.8648 6.27 27.2148 6 27.5748 5.8C27.9348 5.58 28.3048 5.43 28.6848 5.35C29.0648 5.25 29.4148 5.2 29.7348 5.2C30.1148 5.2 30.4948 5.27 30.8748 5.41C31.2748 5.55 31.6348 5.76 31.9548 6.04C32.2748 6.32 32.5248 6.68 32.7048 7.12C32.9048 7.56 33.0048 8.08 33.0048 8.68C33.0048 9.22 32.9248 9.73 32.7648 10.21C32.6048 10.69 32.3748 11.12 32.0748 11.5C31.7748 11.86 31.4048 12.15 30.9648 12.37C30.5448 12.57 30.0748 12.67 29.5548 12.67ZM40.9402 22.3C39.5602 22.3 38.4102 22.11 37.4902 21.73C36.5902 21.33 35.8702 20.79 35.3302 20.11C34.7902 19.43 34.4102 18.64 34.1902 17.74C33.9702 16.82 33.8602 15.84 33.8602 14.8C33.8602 13.6 34.0002 12.43 34.2802 11.29C34.5802 10.13 35.0802 9.1 35.7802 8.2C36.4802 7.3 37.4002 6.58 38.5402 6.04C39.7002 5.48 41.1402 5.2 42.8602 5.2C45.3802 5.2 47.1802 5.82 48.2602 7.06C49.3602 8.28 49.9102 10 49.9102 12.22C49.9102 12.84 49.8602 13.53 49.7602 14.29C49.6802 15.03 49.5102 15.77 49.2502 16.51C49.0102 17.25 48.6702 17.97 48.2302 18.67C47.8102 19.37 47.2702 19.99 46.6102 20.53C45.9502 21.07 45.1502 21.5 44.2102 21.82C43.2902 22.14 42.2002 22.3 40.9402 22.3ZM42.3502 9.19C41.5902 9.19 40.9802 9.39 40.5202 9.79C40.0802 10.17 39.7402 10.64 39.5002 11.2C39.2802 11.74 39.1302 12.32 39.0502 12.94C38.9902 13.54 38.9602 14.05 38.9602 14.47C38.9602 15.79 39.1702 16.76 39.5902 17.38C40.0102 18 40.6102 18.31 41.3902 18.31C42.0902 18.31 42.6602 18.09 43.1002 17.65C43.5602 17.21 43.9102 16.68 44.1502 16.06C44.4102 15.44 44.5802 14.79 44.6602 14.11C44.7602 13.43 44.8102 12.86 44.8102 12.4C44.8102 11.4 44.6202 10.62 44.2402 10.06C43.8802 9.48 43.2502 9.19 42.3502 9.19ZM57.8799 8.05C57.8799 8.47 57.8399 9.06 57.7599 9.82C57.6999 10.58 57.6299 11.37 57.5499 12.19C57.4899 13.01 57.4199 13.78 57.3399 14.5C57.2799 15.22 57.2499 15.74 57.2499 16.06C57.2499 16.76 57.4199 17.31 57.7599 17.71C58.1199 18.09 58.6099 18.28 59.2299 18.28C59.7699 18.28 60.2199 18.07 60.5799 17.65C60.9599 17.21 61.2599 16.65 61.4799 15.97C61.7199 15.27 61.9099 14.48 62.0499 13.6C62.1899 12.72 62.2899 11.83 62.3499 10.93C62.4299 10.03 62.4899 9.16 62.5299 8.32C62.5899 7.46 62.6499 6.72 62.7099 6.1C62.7299 5.94 62.7899 5.8 62.8899 5.68C62.9899 5.56 63.1499 5.5 63.3699 5.5H64.4499C65.0699 5.5 65.5699 5.57 65.9499 5.71C66.3499 5.83 66.6599 6.01 66.8799 6.25C67.1199 6.49 67.2799 6.79 67.3599 7.15C67.4599 7.49 67.5099 7.89 67.5099 8.35C67.5099 8.65 67.4899 9.08 67.4499 9.64C67.4299 10.18 67.3799 10.94 67.2999 11.92C67.2199 12.88 67.1199 14.11 66.9999 15.61C66.8999 17.09 66.7699 18.93 66.6099 21.13C66.5699 21.55 66.5199 21.8 66.4599 21.88C66.4199 21.96 66.2599 22 65.9799 22H64.8099C64.2099 22 63.7099 21.93 63.3099 21.79C62.9299 21.65 62.6199 21.47 62.3799 21.25C62.1399 21.03 61.9699 20.77 61.8699 20.47C61.7699 20.17 61.7099 19.86 61.6899 19.54C61.3899 20.06 61.0499 20.5 60.6699 20.86C60.3099 21.22 59.9299 21.51 59.5299 21.73C59.1299 21.93 58.7199 22.07 58.2999 22.15C57.8799 22.25 57.4699 22.3 57.0699 22.3C56.3099 22.3 55.6299 22.18 55.0299 21.94C54.4299 21.68 53.9199 21.34 53.4999 20.92C53.0999 20.5 52.7899 20 52.5699 19.42C52.3499 18.84 52.2399 18.22 52.2399 17.56C52.2399 17.3 52.2499 16.88 52.2699 16.3C52.3099 15.7 52.3499 15.03 52.3899 14.29C52.4499 13.55 52.5099 12.77 52.5699 11.95C52.6299 11.11 52.6799 10.32 52.7199 9.58C52.7799 8.84 52.8299 8.19 52.8699 7.63C52.9299 7.07 52.9699 6.67 52.9899 6.43C53.0299 6.07 53.1099 5.83 53.2299 5.71C53.3499 5.57 53.5499 5.5 53.8299 5.5H54.7899C55.4099 5.5 55.9199 5.56 56.3199 5.68C56.7199 5.8 57.0299 5.97 57.2499 6.19C57.4899 6.41 57.6499 6.68 57.7299 7C57.8299 7.3 57.8799 7.65 57.8799 8.05ZM80.5182 5.2C82.3982 5.2 83.8082 5.78 84.7482 6.94C85.7082 8.1 86.1882 9.93 86.1882 12.43C86.1882 13.99 86.0082 15.38 85.6482 16.6C85.2882 17.82 84.7882 18.86 84.1482 19.72C83.5082 20.56 82.7582 21.2 81.8982 21.64C81.0382 22.08 80.1082 22.3 79.1082 22.3C78.0482 22.3 77.2182 22.07 76.6182 21.61C76.0182 21.15 75.5482 20.5 75.2082 19.66C75.1482 20.38 75.0982 20.93 75.0582 21.31C75.0182 21.69 74.9882 21.99 74.9682 22.21C74.9482 22.45 74.9282 22.66 74.9082 22.84C74.9082 23.02 74.8882 23.26 74.8482 23.56C74.8282 23.86 74.7982 24.27 74.7582 24.79C74.7182 25.31 74.6582 26.03 74.5782 26.95C74.5582 27.19 74.5082 27.35 74.4282 27.43C74.3482 27.51 74.1782 27.55 73.9182 27.55H72.8382C72.2182 27.55 71.7082 27.48 71.3082 27.34C70.9282 27.22 70.6182 27.04 70.3782 26.8C70.1582 26.56 69.9982 26.26 69.8982 25.9C69.8182 25.56 69.7782 25.16 69.7782 24.7C69.7782 24.5 69.8082 23.96 69.8682 23.08C69.9282 22.2 69.9982 21.15 70.0782 19.93C70.1782 18.69 70.2782 17.36 70.3782 15.94C70.4982 14.52 70.6082 13.17 70.7082 11.89C70.8082 10.59 70.8882 9.44 70.9482 8.44C71.0282 7.44 71.0882 6.75 71.1282 6.37C71.1482 5.93 71.1982 5.67 71.2782 5.59C71.3382 5.53 71.4982 5.5 71.7582 5.5H72.9282C74.0082 5.5 74.7882 5.73 75.2682 6.19C75.7682 6.63 76.0182 7.16 76.0182 7.78C76.4782 6.86 77.0682 6.2 77.7882 5.8C78.5282 5.4 79.4382 5.2 80.5182 5.2ZM78.3282 9.19C77.3082 9.19 76.5582 9.63 76.0782 10.51C75.5982 11.39 75.3582 12.59 75.3582 14.11C75.3582 14.63 75.3882 15.14 75.4482 15.64C75.5282 16.14 75.6582 16.59 75.8382 16.99C76.0182 17.39 76.2582 17.71 76.5582 17.95C76.8782 18.19 77.2782 18.31 77.7582 18.31C78.6182 18.31 79.3382 17.89 79.9182 17.05C80.4982 16.21 80.7882 14.89 80.7882 13.09C80.7882 12.59 80.7482 12.11 80.6682 11.65C80.6082 11.17 80.4882 10.75 80.3082 10.39C80.1282 10.03 79.8782 9.74 79.5582 9.52C79.2382 9.3 78.8282 9.19 78.3282 9.19ZM98.6173 0.37C99.9373 0.37 101.057 0.579999 101.977 0.999999C102.897 1.4 103.647 2 104.227 2.8C104.807 3.58 105.227 4.54 105.487 5.68C105.767 6.8 105.907 8.08 105.907 9.52C105.907 10.32 105.857 11.19 105.757 12.13C105.657 13.07 105.477 14.02 105.217 14.98C104.957 15.92 104.597 16.83 104.137 17.71C103.677 18.59 103.087 19.37 102.367 20.05C101.647 20.73 100.777 21.28 99.7573 21.7C98.7573 22.1 97.5673 22.3 96.1873 22.3C94.7073 22.3 93.4773 22.05 92.4973 21.55C91.5373 21.05 90.7573 20.38 90.1573 19.54C89.5773 18.68 89.1673 17.67 88.9273 16.51C88.6873 15.35 88.5673 14.11 88.5673 12.79C88.5673 11.23 88.7273 9.71 89.0473 8.23C89.3873 6.73 89.9473 5.4 90.7273 4.24C91.5073 3.08 92.5373 2.15 93.8173 1.45C95.1173 0.729999 96.7173 0.37 98.6173 0.37ZM97.9873 5.02C97.4273 5.02 96.9373 5.15 96.5173 5.41C96.1173 5.65 95.7673 5.98 95.4673 6.4C95.1873 6.82 94.9573 7.29 94.7773 7.81C94.6173 8.33 94.4873 8.87 94.3873 9.43C94.2873 9.97 94.2173 10.5 94.1773 11.02C94.1573 11.52 94.1473 11.97 94.1473 12.37C94.1473 14.19 94.3673 15.52 94.8073 16.36C95.2673 17.2 95.9173 17.62 96.7573 17.62C97.4973 17.62 98.0973 17.33 98.5573 16.75C99.0373 16.15 99.4073 15.44 99.6673 14.62C99.9273 13.78 100.097 12.92 100.177 12.04C100.277 11.14 100.327 10.38 100.327 9.76C100.327 8.3 100.147 7.15 99.7873 6.31C99.4273 5.45 98.8273 5.02 97.9873 5.02ZM113.893 17.65C114.833 17.65 115.613 17.45 116.233 17.05C116.873 16.65 117.373 16.16 117.733 15.58C118.113 15 118.383 14.39 118.543 13.75C118.703 13.11 118.783 12.54 118.783 12.04C118.783 11.76 118.743 11.57 118.663 11.47C118.583 11.57 118.433 11.76 118.213 12.04C118.013 12.32 117.723 12.61 117.343 12.91C116.983 13.21 116.513 13.48 115.933 13.72C115.353 13.94 114.663 14.05 113.863 14.05C113.203 14.05 112.543 13.96 111.883 13.78C111.243 13.58 110.663 13.26 110.143 12.82C109.643 12.36 109.233 11.77 108.913 11.05C108.593 10.31 108.433 9.4 108.433 8.32C108.433 7.22 108.613 6.19 108.973 5.23C109.333 4.27 109.863 3.43 110.563 2.71C111.263 1.99 112.143 1.42 113.203 0.999999C114.263 0.579999 115.483 0.37 116.863 0.37C118.363 0.37 119.583 0.619999 120.523 1.12C121.483 1.6 122.233 2.25 122.773 3.07C123.313 3.87 123.683 4.81 123.883 5.89C124.083 6.97 124.183 8.09 124.183 9.25C124.183 10.99 123.993 12.65 123.613 14.23C123.233 15.81 122.623 17.2 121.783 18.4C120.943 19.6 119.853 20.55 118.513 21.25C117.173 21.95 115.533 22.3 113.593 22.3C112.633 22.3 111.813 22.21 111.133 22.03C110.453 21.85 109.893 21.6 109.453 21.28C109.033 20.96 108.723 20.59 108.523 20.17C108.343 19.73 108.253 19.25 108.253 18.73C108.253 17.77 108.563 17.06 109.183 16.6C109.823 16.14 110.733 15.91 111.913 15.91C112.133 15.91 112.263 15.93 112.303 15.97C112.343 16.01 112.383 16.11 112.423 16.27C112.523 16.81 112.653 17.18 112.813 17.38C112.993 17.56 113.353 17.65 113.893 17.65ZM115.903 10.45C116.403 10.45 116.823 10.34 117.163 10.12C117.503 9.9 117.763 9.63 117.943 9.31C118.143 8.99 118.283 8.65 118.363 8.29C118.443 7.93 118.483 7.6 118.483 7.3C118.483 6.6 118.303 6.05 117.943 5.65C117.583 5.25 117.103 5.05 116.503 5.05C116.023 5.05 115.623 5.17 115.303 5.41C114.983 5.65 114.723 5.95 114.523 6.31C114.343 6.65 114.213 7.02 114.133 7.42C114.053 7.8 114.013 8.13 114.013 8.41C114.013 9.01 114.163 9.5 114.463 9.88C114.763 10.26 115.243 10.45 115.903 10.45Z" fill="url(#paint0_linear_1_16)"/>
<defs>
<linearGradient id="paint0_linear_1_16" x1="-7" y1="-8" x2="135" y2="105.5" gradientUnits="userSpaceOnUse">
<stop stop-color="white"/>
<stop offset="1" stop-color="white" stop-opacity="0"/>
</linearGradient>
</defs>
</svg>
