<svg width="41" height="41" viewBox="0 0 41 41" fill="none" xmlns="http://www.w3.org/2000/svg">
<mask id="mask0_1_9" style="mask-type:luminance" maskUnits="userSpaceOnUse" x="0" y="0" width="41" height="41">
<path d="M41 0H0V41H41V0Z" fill="white"/>
</mask>
<g mask="url(#mask0_1_9)">
<path d="M30.7509 41V38.0714C30.7509 37.6868 30.6846 37.306 30.5558 36.9506C30.4271 36.5955 30.2383 36.2726 30.0004 36.0005C29.7623 35.7286 29.4798 35.5129 29.1691 35.3657C28.8581 35.2186 28.5249 35.1428 28.1884 35.1428H17.9376C14.5395 35.1428 11.2806 33.6001 8.87777 30.854C6.47493 28.1079 5.12502 24.3836 5.12496 20.5C5.12496 18.5771 5.45638 16.673 6.10028 14.8964C6.74418 13.1198 7.68796 11.5056 8.87773 10.1459C10.0675 8.78618 11.4799 7.70762 13.0345 6.97176C14.589 6.2359 16.2551 5.85718 17.9376 5.85721H28.1876C28.5241 5.85732 28.8575 5.78165 29.1685 5.63454C29.4794 5.48741 29.7621 5.2717 30 4.99975C30.2382 4.72778 30.4269 4.4049 30.5558 4.04953C30.6846 3.69416 30.7509 3.31327 30.7509 2.9286V0H17.9382C15.5826 -1.54511e-10 13.2501 0.53025 11.0738 1.56047C8.89756 2.5907 6.92016 4.10072 5.25453 6.00432C3.58888 7.90793 2.26762 10.1678 1.3662 12.655C0.464775 15.1422 0.000829254 17.8079 0.000854493 20.5C0.000854491 25.9368 1.89067 31.1512 5.25457 34.9956C8.61848 38.8401 13.1809 41 17.9382 41H30.7509Z" fill="url(#paint0_linear_1_9)"/>
<path d="M10.2499 20.5C10.2499 22.8301 11.0598 25.0647 12.5015 26.7121C13.9431 28.3598 15.8984 29.2854 17.9372 29.2854H30.7508C32.1101 29.2854 33.4135 29.9025 34.3746 31.0009C35.3357 32.0993 35.8757 33.5891 35.8757 35.1426V40.9998H41.0008V35.1428C41.0008 32.0361 39.9209 29.0565 37.9987 26.8595C36.0763 24.6627 33.4692 23.4286 30.7508 23.4286H17.9375C17.2579 23.4286 16.6061 23.12 16.1256 22.5709C15.645 22.0216 15.375 21.2767 15.375 20.5C15.375 19.7233 15.645 18.9784 16.1256 18.4292C16.6061 17.8799 17.2579 17.5714 17.9375 17.5714H30.7508C33.4692 17.5714 36.0763 16.3372 37.9987 14.1404C39.9209 11.9436 41.0008 8.964 41.0008 5.85721V0H35.8749V5.85721C35.8749 7.41042 35.3351 8.90004 34.3742 9.99841C33.4133 11.0968 32.1099 11.714 30.7508 11.7142H17.9375C16.928 11.7141 15.9283 11.9413 14.9956 12.3828C14.0628 12.8244 13.2153 13.4715 12.5015 14.2874C11.7876 15.1032 11.2214 16.0718 10.835 17.1378C10.4487 18.2037 10.2499 19.3462 10.2499 20.5Z" fill="url(#paint1_linear_1_9)"/>
</g>
<defs>
<linearGradient id="paint0_linear_1_9" x1="4.6441" y1="20.5" x2="44.0965" y2="20.5" gradientUnits="userSpaceOnUse">
<stop stop-color="#F54A48"/>
<stop offset="1" stop-color="#FA982F"/>
</linearGradient>
<linearGradient id="paint1_linear_1_9" x1="4.62255" y1="20.4999" x2="44.1066" y2="20.4999" gradientUnits="userSpaceOnUse">
<stop stop-color="#F54A48"/>
<stop offset="1" stop-color="#FA982F"/>
</linearGradient>
</defs>
</svg>
